<svg width="36" height="36" viewBox="0 0 36 36" fill="none" xmlns="http://www.w3.org/2000/svg">
<path fill-rule="evenodd" clip-rule="evenodd" d="M15.9226 26.6722C21.6311 26.6722 26.2587 22.0446 26.2587 16.3361C26.2587 10.6276 21.6311 6 15.9226 6C10.2142 6 5.58655 10.6276 5.58655 16.3361C5.58655 22.0446 10.2142 26.6722 15.9226 26.6722ZM15.9226 23.3646C19.8044 23.3646 22.9512 20.2179 22.9512 16.3361C22.9512 12.4543 19.8044 9.30755 15.9226 9.30755C12.0409 9.30755 8.8941 12.4543 8.8941 16.3361C8.8941 20.2179 12.0409 23.3646 15.9226 23.3646Z" fill="#FF6414"/>
<path d="M21.6525 24.0163C20.8855 23.2494 20.8855 22.006 21.6525 21.239C22.4194 20.4721 23.6628 20.4721 24.4298 21.239L29.8382 26.6475C30.6052 27.4144 30.6052 28.6579 29.8382 29.4248C29.0713 30.1917 27.8278 30.1917 27.0609 29.4248L21.6525 24.0163Z" fill="#FF6414"/>
</svg>
