<svg width="32" height="33" viewBox="0 0 32 33" fill="none" xmlns="http://www.w3.org/2000/svg">
<path fill-rule="evenodd" clip-rule="evenodd" d="M13.3508 26.7016C20.7242 26.7016 26.7016 20.7242 26.7016 13.3508C26.7016 5.97736 20.7242 0 13.3508 0C5.97733 0 0 5.97736 0 13.3508C0 20.7242 5.97733 26.7016 13.3508 26.7016ZM13.3508 22.4293C18.3647 22.4293 22.4293 18.3647 22.4293 13.3508C22.4293 8.33685 18.3647 4.27225 13.3508 4.27225C8.33683 4.27225 4.27222 8.33685 4.27222 13.3508C4.27222 18.3647 8.33683 22.4293 13.3508 22.4293Z" fill="#FF6414"/>
<path d="M20.2611 24.7169C20.095 24.1129 21.0094 23.8782 22 22.8876C22.9906 21.897 23.4708 21.2909 23.8485 21.1295L30.8344 28.1154C31.825 29.106 31.825 30.7122 30.8344 31.7028C29.8438 32.6934 28.2377 32.6934 27.2471 31.7028L20.2611 24.7169Z" fill="#FF6414"/>
</svg>
