<svg width="31" height="31" viewBox="0 0 31 31" fill="none" xmlns="http://www.w3.org/2000/svg">
<path d="M1.70711 29.2929C1.07714 29.9229 0 29.4767 0 28.5858V3.1C0 2.2475 0.303542 1.51771 0.910625 0.910625C1.51771 0.303542 2.2475 0 3.1 0H27.9C28.7525 0 29.4823 0.303542 30.0894 0.910625C30.6965 1.51771 31 2.2475 31 3.1V21.7C31 22.5525 30.6965 23.2823 30.0894 23.8894C29.4823 24.4965 28.7525 24.8 27.9 24.8H6.61421C6.349 24.8 6.09464 24.9054 5.90711 25.0929L1.70711 29.2929ZM5.16667 21.1833H26C26.5523 21.1833 27 20.7356 27 20.1833V4.61667C27 4.06438 26.5523 3.61667 26 3.61667H5C4.44771 3.61667 4 4.06438 4 4.61667V20.1833C4 20.7356 4.44772 21.1833 5 21.1833H5.16667Z" fill="#FF6414"/>
</svg>
