<svg width="62" height="62" viewBox="0 0 62 62" fill="none" xmlns="http://www.w3.org/2000/svg">
<path d="M13.0005 30.5713C13.0005 20.8669 20.8674 13 30.5718 13C40.2761 13 48.1431 20.8669 48.1431 30.5713C48.1431 40.2756 40.2761 48.1426 30.5718 48.1426C20.8674 48.1426 13.0005 40.2756 13.0005 30.5713Z" fill="#5A5857"/>
<path d="M41.2866 44.91C38.3857 46.9468 34.8355 48.1449 31.001 48.1449C27.1665 48.1449 23.6162 46.9468 20.7153 44.91C20.7655 39.3595 25.3513 34.8751 31.001 34.8751C36.6506 34.8751 41.2364 39.3595 41.2866 44.91Z" fill="#413F3F"/>
<path d="M24.6166 26.145C24.6166 22.6736 27.475 19.8594 31.001 19.8594C34.5271 19.8594 37.3855 22.6736 37.3855 26.145C37.3855 29.6165 34.5271 32.4307 31.001 32.4307C27.475 32.4307 24.6166 29.6165 24.6166 26.145Z" fill="#413F3F"/>
<path d="M48.9995 31.4307C48.9995 41.135 41.1326 49.002 31.4282 49.002C21.7239 49.002 13.8569 41.135 13.8569 31.4307C13.8569 21.7263 21.7239 13.8594 31.4282 13.8594C41.1326 13.8594 48.9995 21.7263 48.9995 31.4307ZM17.6963 31.4307C17.6963 39.0146 23.8443 45.1626 31.4282 45.1626C39.0122 45.1626 45.1602 39.0146 45.1602 31.4307C45.1602 23.8467 39.0122 17.6987 31.4282 17.6987C23.8443 17.6987 17.6963 23.8467 17.6963 31.4307Z" fill="#5A5857"/>
</svg>
