<svg width="62" height="62" viewBox="0 0 62 62" fill="none" xmlns="http://www.w3.org/2000/svg">
<path d="M52.7089 32.3133C52.4475 33.0271 51.9729 33.6433 51.3494 34.0782C50.7259 34.513 49.9837 34.7456 49.2236 34.7443H48.2278V46.8702C48.2394 47.4059 48.1445 47.9385 47.9484 48.4372C47.7524 48.9358 47.4591 49.3905 47.0858 49.7748C46.7124 50.1591 46.2663 50.4653 45.7735 50.6757C45.2808 50.886 44.7511 50.9962 44.2153 51H35.9414V39.0059C35.9453 38.9131 35.9304 38.8205 35.8976 38.7335C35.8648 38.6466 35.8147 38.5672 35.7504 38.5002C35.6861 38.4331 35.6089 38.3798 35.5234 38.3434C35.438 38.307 35.346 38.2883 35.2531 38.2883H29.7469C29.654 38.2883 29.562 38.307 29.4766 38.3434C29.3911 38.3798 29.3139 38.4331 29.2496 38.5002C29.1853 38.5672 29.1352 38.6466 29.1024 38.7335C29.0696 38.8205 29.0547 38.9131 29.0586 39.0059V51H20.7847C20.2539 50.9886 19.7305 50.8727 19.2445 50.659C18.7585 50.4452 18.3194 50.1378 17.9522 49.7543C17.585 49.3708 17.297 48.9187 17.1046 48.4238C16.9122 47.9289 16.8191 47.401 16.8308 46.8702V34.7443H15.7764C15.0163 34.7456 14.2741 34.513 13.6506 34.0782C13.0271 33.6433 12.5525 33.0271 12.2911 32.3133C11.9999 31.5954 11.9251 30.808 12.076 30.0481C12.227 29.2882 12.597 28.5891 13.1405 28.037L29.8641 11.1077C30.2077 10.757 30.6178 10.4784 31.0704 10.2882C31.523 10.098 32.009 10 32.5 10C32.991 10 33.477 10.098 33.9296 10.2882C34.3822 10.4784 34.7923 10.757 35.1359 11.1077L51.8595 28.037C52.403 28.5891 52.773 29.2882 52.924 30.0481C53.0749 30.808 53.0001 31.5954 52.7089 32.3133Z" fill="#5A5857"/>
</svg>
