<svg width="62" height="62" viewBox="0 0 62 62" fill="none" xmlns="http://www.w3.org/2000/svg">
<path d="M12 20.7393C12 19.2264 13.2244 18 14.7348 18H46.2652C47.7756 18 49 19.2264 49 20.7393V49.2607C49 50.7736 47.7756 52 46.2652 52H14.7348C13.2244 52 12 50.7736 12 49.2607V20.7393Z" fill="#5A5857"/>
<path d="M15 13.3908C15 10.4135 17.4454 8 20.462 8C23.4785 8 25.9239 10.4135 25.9239 13.3908V16.6092C25.9239 19.5865 23.4785 22 20.462 22C17.4454 22 15 19.5865 15 16.6092V13.3908Z" fill="#413F3F"/>
<path d="M34.0761 13.3908C34.0761 10.4135 36.5215 8 39.538 8C42.5546 8 45 10.4135 45 13.3908V16.6092C45 19.5865 42.5546 22 39.538 22C36.5215 22 34.0761 19.5865 34.0761 16.6092V13.3908Z" fill="#413F3F"/>
<path d="M18 12.4314C18 11.0886 19.1253 10 20.5135 10C21.9017 10 23.027 11.0886 23.027 12.4314V15.5686C23.027 16.9114 21.9017 18 20.5135 18C19.1253 18 18 16.9114 18 15.5686V12.4314Z" fill="#5A5857"/>
<path d="M36.973 12.4314C36.973 11.0886 38.0983 10 39.4865 10C40.8747 10 42 11.0886 42 12.4314V15.5686C42 16.9114 40.8747 18 39.4865 18C38.0983 18 36.973 16.9114 36.973 15.5686V12.4314Z" fill="#5A5857"/>
<path d="M22 33.7929L27.0279 39.4921C27.2725 39.7693 27.6985 39.7876 27.9659 39.5324L39 29" stroke="#413F3F" stroke-width="3.4188" stroke-linecap="round"/>
</svg>
