<svg width="62" height="62" viewBox="0 0 62 62" fill="none" xmlns="http://www.w3.org/2000/svg">
<path fill-rule="evenodd" clip-rule="evenodd" d="M28.3167 42.2016C35.6902 42.2016 41.6675 36.2242 41.6675 28.8508C41.6675 21.4774 35.6902 15.5 28.3167 15.5C20.9433 15.5 14.9659 21.4774 14.9659 28.8508C14.9659 36.2242 20.9433 42.2016 28.3167 42.2016ZM28.3167 37.9293C33.3307 37.9293 37.3953 33.8647 37.3953 28.8508C37.3953 23.8369 33.3307 19.7723 28.3167 19.7723C23.3028 19.7723 19.2382 23.8369 19.2382 28.8508C19.2382 33.8647 23.3028 37.9293 28.3167 37.9293Z" fill="#5A5857"/>
<path d="M35.7177 38.7711C34.7271 37.7805 34.7271 36.1744 35.7177 35.1837C36.7084 34.1931 38.3145 34.1931 39.3051 35.1837L46.291 42.1697C47.2817 43.1603 47.2817 44.7664 46.291 45.757C45.3004 46.7477 43.6943 46.7477 42.7037 45.757L35.7177 38.7711Z" fill="#5A5857"/>
</svg>
