<svg width="18" height="18" viewBox="0 0 18 18" fill="none" xmlns="http://www.w3.org/2000/svg">
<path fill-rule="evenodd" clip-rule="evenodd" d="M7.61032 14.8133C11.8134 14.8133 15.2207 11.4972 15.2207 7.40665C15.2207 3.31607 11.8134 0 7.61032 0C3.40725 0 0 3.31607 0 7.40665C0 11.4972 3.40725 14.8133 7.61032 14.8133ZM7.61032 12.4432C10.4684 12.4432 12.7853 10.1882 12.7853 7.40665C12.7853 4.62506 10.4684 2.37013 7.61032 2.37013C4.75223 2.37013 2.43528 4.62506 2.43528 7.40665C2.43528 10.1882 4.75223 12.4432 7.61032 12.4432Z" fill="#FF6414"/>
<path d="M11.5494 13.7122C11.4547 13.3772 11.9759 13.247 12.5406 12.6974C13.1053 12.1478 13.379 11.8116 13.5943 11.7221L17.5765 15.5977C18.1412 16.1472 18.1412 17.0383 17.5765 17.5878C17.0118 18.1374 16.0963 18.1374 15.5316 17.5878L11.5494 13.7122Z" fill="#FF6414"/>
</svg>
