<svg width="500" height="500" viewBox="0 0 500 500" fill="none" xmlns="http://www.w3.org/2000/svg">
<rect width="500" height="500" rx="106" fill="#FF6414"/>
<circle cx="250" cy="250" r="217" fill="#FF6414"/>
<rect x="207.284" y="130.395" width="6.83465" height="23.9213" fill="black"/>
<rect x="183.251" y="138.871" width="6.83465" height="23.9213" transform="rotate(-18 183.251 138.871)" fill="black"/>
<rect width="6.83465" height="23.9213" transform="matrix(-0.987688 -0.156434 -0.156434 0.987688 234.742 136.203)" fill="black"/>
<path d="M254.577 250C254.577 277.943 249.412 303.078 241.205 321.102C232.861 339.426 222.019 349.164 211.25 349.164C200.481 349.164 189.639 339.426 181.295 321.102C173.087 303.078 167.923 277.943 167.923 250C167.923 222.057 173.087 196.922 181.295 178.899C189.639 160.574 200.481 150.837 211.25 150.837C222.019 150.837 232.861 160.574 241.205 178.899C249.412 196.922 254.577 222.057 254.577 250Z" fill="white" stroke="black" stroke-width="6.7126"/>
<rect x="285.993" y="130.395" width="6.83465" height="23.9213" fill="black"/>
<rect x="261.96" y="138.871" width="6.83465" height="23.9213" transform="rotate(-18 261.96 138.871)" fill="black"/>
<rect width="6.83465" height="23.9213" transform="matrix(-0.987688 -0.156434 -0.156434 0.987688 313.452 136.203)" fill="black"/>
<path d="M331.466 250C331.466 277.943 326.302 303.078 318.095 321.102C309.751 339.426 298.908 349.164 288.14 349.164C277.371 349.164 266.528 339.426 258.184 321.102C249.977 303.078 244.813 277.943 244.813 250C244.813 222.057 249.977 196.922 258.184 178.899C266.528 160.574 277.371 150.837 288.14 150.837C298.908 150.837 309.751 160.574 318.095 178.899C326.302 196.922 331.466 222.057 331.466 250Z" fill="white" stroke="black" stroke-width="6.7126"/>
<ellipse cx="204.049" cy="254.882" rx="29.5965" ry="47.3543" fill="black"/>
<ellipse cx="280.817" cy="254.882" rx="29.5965" ry="47.3543" fill="black"/>
</svg>
