<svg width="21" height="21" viewBox="0 0 21 21" fill="none" xmlns="http://www.w3.org/2000/svg">
<mask id="mask0_485_1260" style="mask-type:alpha" maskUnits="userSpaceOnUse" x="0" y="0" width="21" height="21">
<rect width="21" height="21" fill="#D9D9D9"/>
</mask>
<g mask="url(#mask0_485_1260)">
<path d="M10.5 19.25C9.40625 19.25 8.38177 19.0422 7.42656 18.6266C6.47135 18.2109 5.6401 17.6495 4.93281 16.9422C4.22552 16.2349 3.66406 15.4036 3.24844 14.4484C2.83281 13.4932 2.625 12.4688 2.625 11.375C2.625 10.2812 2.83281 9.25677 3.24844 8.30156C3.66406 7.34635 4.22552 6.5151 4.93281 5.80781C5.6401 5.10052 6.47135 4.53906 7.42656 4.12344C8.38177 3.70781 9.40625 3.5 10.5 3.5H10.6313L9.275 2.14375L10.5 0.875L14 4.375L10.5 7.875L9.275 6.60625L10.6313 5.25H10.5C8.79375 5.25 7.34635 5.84427 6.15781 7.03281C4.96927 8.22135 4.375 9.66875 4.375 11.375C4.375 13.0813 4.96927 14.5286 6.15781 15.7172C7.34635 16.9057 8.79375 17.5 10.5 17.5C12.2063 17.5 13.6536 16.9057 14.8422 15.7172C16.0307 14.5286 16.625 13.0813 16.625 11.375H18.375C18.375 12.4688 18.1672 13.4932 17.7516 14.4484C17.3359 15.4036 16.7745 16.2349 16.0672 16.9422C15.3599 17.6495 14.5286 18.2109 13.5734 18.6266C12.6182 19.0422 11.5938 19.25 10.5 19.25Z" fill="#1C1B1F"/>
</g>
</svg>
