<svg width="33" height="33" viewBox="0 0 33 33" fill="none" xmlns="http://www.w3.org/2000/svg">
<mask id="mask0_346_518" style="mask-type:alpha" maskUnits="userSpaceOnUse" x="0" y="0" width="33" height="33">
<rect width="33" height="33" fill="#D9D9D9"/>
</mask>
<g mask="url(#mask0_346_518)">
<path d="M5.5 26.125V23.375H8.25V13.75C8.25 11.8479 8.82292 10.1578 9.96875 8.67969C11.1146 7.20156 12.6042 6.23333 14.4375 5.775V4.8125C14.4375 4.23958 14.638 3.7526 15.0391 3.35156C15.4401 2.95052 15.9271 2.75 16.5 2.75C17.0729 2.75 17.5599 2.95052 17.9609 3.35156C18.362 3.7526 18.5625 4.23958 18.5625 4.8125V5.775C20.3958 6.23333 21.8854 7.20156 23.0312 8.67969C24.1771 10.1578 24.75 11.8479 24.75 13.75V23.375H27.5V26.125H5.5ZM16.5 30.25C15.7437 30.25 15.0964 29.9807 14.5578 29.4422C14.0193 28.9036 13.75 28.2563 13.75 27.5H19.25C19.25 28.2563 18.9807 28.9036 18.4422 29.4422C17.9036 29.9807 17.2563 30.25 16.5 30.25ZM11 23.375H22V13.75C22 12.2375 21.4615 10.9427 20.3844 9.86563C19.3073 8.78854 18.0125 8.25 16.5 8.25C14.9875 8.25 13.6927 8.78854 12.6156 9.86563C11.5385 10.9427 11 12.2375 11 13.75V23.375Z" fill="white"/>
</g>
</svg>
