<svg width="33" height="31" viewBox="0 0 33 31" fill="none" xmlns="http://www.w3.org/2000/svg">
<path d="M0 14.5V3.5C0 1.9 1.66667 1.5 2.5 1.5H10.5V0H19.5V1.5H26.5C28.5 1.5 30 2.5 30 3.5V14H29.5C22.3 9.6 17.1667 13.8333 15.5 16.5H2.5C0.5 16.5 0 15.1667 0 14.5Z" fill="#FF7B52"/>
<path d="M0 23.5V18.5C0 19.3 1 19.5 1.5 19.5H14V25.5H2C0.4 25.1 0 24 0 23.5Z" fill="#FFAF52"/>
<path d="M30.5 30.5L27 27L29 25L32.5 28.5L30.5 30.5Z" fill="#FF7A00"/>
<circle cx="23.5" cy="22" r="7.5" fill="#FF7A00"/>
<circle cx="23.5" cy="22" r="5" fill="white"/>
<circle cx="15" cy="11" r="2" fill="white"/>
</svg>
