<svg width="57" height="54" viewBox="0 0 57 54" fill="none" xmlns="http://www.w3.org/2000/svg">
<rect width="57" height="54" rx="17" fill="#F4F4F4"/>
<mask id="mask0_578_4481" style="mask-type:alpha" maskUnits="userSpaceOnUse" x="17" y="15" width="24" height="24">
<rect x="17" y="15" width="24" height="24" fill="#D9D9D9"/>
</mask>
<g mask="url(#mask0_578_4481)">
<path d="M23 29C22.45 29 21.9792 28.8042 21.5875 28.4125C21.1958 28.0208 21 27.55 21 27C21 26.45 21.1958 25.9792 21.5875 25.5875C21.9792 25.1958 22.45 25 23 25C23.55 25 24.0208 25.1958 24.4125 25.5875C24.8042 25.9792 25 26.45 25 27C25 27.55 24.8042 28.0208 24.4125 28.4125C24.0208 28.8042 23.55 29 23 29ZM29 29C28.45 29 27.9792 28.8042 27.5875 28.4125C27.1958 28.0208 27 27.55 27 27C27 26.45 27.1958 25.9792 27.5875 25.5875C27.9792 25.1958 28.45 25 29 25C29.55 25 30.0208 25.1958 30.4125 25.5875C30.8042 25.9792 31 26.45 31 27C31 27.55 30.8042 28.0208 30.4125 28.4125C30.0208 28.8042 29.55 29 29 29ZM35 29C34.45 29 33.9792 28.8042 33.5875 28.4125C33.1958 28.0208 33 27.55 33 27C33 26.45 33.1958 25.9792 33.5875 25.5875C33.9792 25.1958 34.45 25 35 25C35.55 25 36.0208 25.1958 36.4125 25.5875C36.8042 25.9792 37 26.45 37 27C37 27.55 36.8042 28.0208 36.4125 28.4125C36.0208 28.8042 35.55 29 35 29Z" fill="black"/>
</g>
</svg>
