<svg width="57" height="54" viewBox="0 0 57 54" fill="none" xmlns="http://www.w3.org/2000/svg">
<rect width="57" height="54" rx="17" fill="#F4F4F4"/>
<path d="M18 36V33H38V36H28H18ZM22 29H23.4L31.2 21.225L29.775 19.8L22 27.6V29ZM20 31V26.75L31.2 15.575C31.3833 15.3917 31.5958 15.25 31.8375 15.15C32.0792 15.05 32.3333 15 32.6 15C32.8667 15 33.125 15.05 33.375 15.15C33.625 15.25 33.85 15.4 34.05 15.6L35.425 17C35.625 17.1833 35.7708 17.4 35.8625 17.65C35.9542 17.9 36 18.1583 36 18.425C36 18.675 35.9542 18.9208 35.8625 19.1625C35.7708 19.4042 35.625 19.625 35.425 19.825L24.25 31H20Z" fill="#FF6414"/>
<rect x="16" y="33" width="22" height="3" fill="#FFAA7D"/>
</svg>
