<svg width="22" height="21" viewBox="0 0 22 21" fill="none" xmlns="http://www.w3.org/2000/svg">
<path d="M2 21V18H22V21H12H2ZM6 14H7.4L15.2 6.225L13.775 4.8L6 12.6V14ZM4 16V11.75L15.2 0.575C15.3833 0.391667 15.5958 0.25 15.8375 0.15C16.0792 0.05 16.3333 0 16.6 0C16.8667 0 17.125 0.05 17.375 0.15C17.625 0.25 17.85 0.4 18.05 0.6L19.425 2C19.625 2.18333 19.7708 2.4 19.8625 2.65C19.9542 2.9 20 3.15833 20 3.425C20 3.675 19.9542 3.92083 19.8625 4.1625C19.7708 4.40417 19.625 4.625 19.425 4.825L8.25 16H4Z" fill="#FF6414"/>
<rect y="18" width="22" height="3" fill="#FFAA7D"/>
</svg>
