<svg width="57" height="54" viewBox="0 0 57 54" fill="none" xmlns="http://www.w3.org/2000/svg">
<rect width="57" height="54" rx="17" fill="#F4F4F4"/>
<path d="M19 36.8769V17.1231C19 17.0413 19.0094 16.9596 19.0319 16.881C19.4288 15.4951 20.5927 14.527 21.293 14.1134C21.4267 14.0344 21.5808 14 21.7361 14H39C39.5523 14 40 14.4477 40 15V33.5C40 34.0523 39.5523 34.5 39 34.5H21.8028C21.6054 34.5 21.4096 34.5567 21.2521 34.6758C19.3708 36.0974 20.3394 37.589 21.2561 38.3215C21.4104 38.4447 21.6054 38.5 21.8028 38.5H39.5C39.7761 38.5 40 38.7239 40 39C40 39.2761 39.7761 39.5 39.5 39.5H21.6231C21.5413 39.5 21.4594 39.4906 21.3809 39.4679C19.9501 39.0535 19.2452 37.8042 19.0331 37.1181C19.009 37.04 19 36.9587 19 36.8769Z" fill="#0066FF"/>
</svg>
