<svg width="21" height="26" viewBox="0 0 21 26" fill="none" xmlns="http://www.w3.org/2000/svg">
<path d="M0 22.8769V3.12311C0 3.04134 0.00940546 2.95958 0.0319164 2.88098C0.42882 1.4951 1.5927 0.526989 2.29301 0.113368C2.42668 0.0344186 2.58082 0 2.73607 0H20C20.5523 0 21 0.447716 21 1V19.5C21 20.0523 20.5523 20.5 20 20.5H2.80278C2.60535 20.5 2.40957 20.5567 2.25206 20.6758C0.370816 22.0974 1.33937 23.589 2.25615 24.3215C2.41039 24.4447 2.60535 24.5 2.80278 24.5H20.5C20.7761 24.5 21 24.7239 21 25C21 25.2761 20.7761 25.5 20.5 25.5H2.62311C2.54134 25.5 2.45942 25.4906 2.38089 25.4679C0.950094 25.0535 0.245176 23.8042 0.0331449 23.1181C0.00900425 23.04 0 22.9587 0 22.8769Z" fill="#0066FF"/>
</svg>
