<svg width="57" height="54" viewBox="0 0 57 54" fill="none" xmlns="http://www.w3.org/2000/svg">
<rect width="57" height="54" rx="17" fill="#F4F4F4"/>
<path d="M45.1248 26.0615H32.9402C32.3879 26.0615 31.9402 26.5092 31.9402 27.0615V30.5918C31.9402 30.6736 31.9513 30.7571 31.9687 30.837C32.3514 32.6031 31.1185 33.0317 29.9412 33.0822C29.3501 33.1076 28.8379 33.555 28.8379 34.1466V42.3484C28.8379 43.8996 30.1305 44.2873 30.7768 44.2873H45.3503C45.4578 44.2873 45.5654 44.2717 45.6646 44.2304C46.3956 43.9254 46.8276 43.2861 47.0046 42.887C47.0482 42.7887 47.0637 42.6814 47.0637 42.5739V28.2038C47.0637 26.2648 45.5126 26.0615 45.1248 26.0615Z" fill="#FFB155"/>
<path d="M11 31.5374V13.0468C11 12.9651 11.009 12.8832 11.0329 12.8051C11.3822 11.6628 12.4388 11.3726 12.9389 11.3726C18.1094 11.5019 28.8899 11.3286 30.7769 11.3271C32.7159 11.3256 33.1036 12.536 33.1036 13.3115V26.1085V31.4546C33.1036 31.5097 33.0993 31.5657 33.0888 31.6198C32.7567 33.3434 31.2612 33.588 30.4709 33.4882C30.4162 33.4813 30.3615 33.4763 30.3064 33.4763H13.0379C12.9721 33.4763 12.9057 33.4701 12.8415 33.4554C11.3715 33.119 11 32.0434 11 31.5374Z" fill="#FF6414"/>
<path d="M15.3147 29L20.2952 14.8594H23.4202L28.4202 29H25.7053L24.5237 25.5039H19.2014L18.0296 29H15.3147ZM23.8401 23.4531L21.9163 17.75H21.7991L19.885 23.4531H23.8401Z" fill="white"/>
<path d="M33.6449 31.3906H36.6156V29.9688H37.9613V31.3906H43.4203V32.5332H37.9613V33.5552C38.211 33.5256 38.4818 33.5107 38.7738 33.5107C39.7682 33.5107 40.6252 33.6462 41.3446 33.917C42.064 34.1878 42.6141 34.5793 42.995 35.0913C43.3801 35.6034 43.5726 36.2148 43.5726 36.9258C43.5726 37.5225 43.4266 38.0789 43.1346 38.5952C42.8426 39.1115 42.4343 39.5431 41.9095 39.8901C41.389 40.2329 40.7966 40.4593 40.1322 40.5693L39.6751 39.4141C40.1872 39.3252 40.6315 39.1644 41.0082 38.9316C41.389 38.6947 41.681 38.4027 41.8841 38.0557C42.0873 37.7087 42.1888 37.3278 42.1888 36.9131C42.1888 36.3164 41.9772 35.8234 41.5541 35.4341C40.9024 36.3397 40.1978 37.1564 39.4403 37.8843C38.687 38.6079 37.9528 39.175 37.2376 39.5854C36.5225 39.9959 35.8962 40.2012 35.3587 40.2012C34.9863 40.2012 34.6605 40.106 34.3812 39.9155C34.1019 39.7209 33.8861 39.4458 33.7337 39.0903C33.5814 38.7349 33.5052 38.3223 33.5052 37.8525C33.5052 37.2432 33.6322 36.6761 33.8861 36.1514C34.1442 35.6224 34.506 35.1632 34.9715 34.7739C35.4413 34.3804 35.9893 34.0757 36.6156 33.8599V32.5332H33.6449V31.3906ZM34.8382 37.8145C34.8382 38.1699 34.9038 38.4513 35.035 38.6587C35.1662 38.866 35.346 38.9697 35.5746 38.9697C35.8496 38.9697 36.2093 38.8322 36.6537 38.5571V35.1484C36.0866 35.4277 35.6423 35.8001 35.3207 36.2656C34.999 36.7269 34.8382 37.2432 34.8382 37.8145ZM37.9359 37.5986C38.3718 37.222 38.8097 36.7967 39.2499 36.3228C39.69 35.8446 40.0983 35.3516 40.475 34.8438C40.0433 34.7083 39.5482 34.6406 38.9896 34.6406C38.6341 34.6406 38.2829 34.6702 37.9359 34.7295V37.5986Z" fill="white"/>
</svg>
