<svg width="37" height="37" viewBox="0 0 37 37" fill="none" xmlns="http://www.w3.org/2000/svg">
<path d="M34.1248 17.0615H21.9402C21.3879 17.0615 20.9402 17.5092 20.9402 18.0615V21.5918C20.9402 21.6736 20.9513 21.7571 20.9687 21.837C21.3514 23.6031 20.1185 24.0317 18.9412 24.0822C18.3501 24.1076 17.8379 24.555 17.8379 25.1466V33.3484C17.8379 34.8996 19.1305 35.2873 19.7768 35.2873H34.3503C34.4578 35.2873 34.5654 35.2717 34.6646 35.2304C35.3956 34.9254 35.8276 34.2861 36.0046 33.887C36.0482 33.7887 36.0637 33.6814 36.0637 33.5739V19.2038C36.0637 17.2648 34.5126 17.0615 34.1248 17.0615Z" fill="#FFB155"/>
<path d="M0 22.5374V4.04685C0 3.96509 0.00902013 3.88324 0.0329279 3.80506C0.382237 2.66279 1.43877 2.37257 1.93892 2.37262C7.10936 2.50188 17.8899 2.32862 19.7769 2.32715C21.7159 2.32563 22.1036 3.53597 22.1036 4.31154V17.1085V22.4546C22.1036 22.5097 22.0993 22.5657 22.0888 22.6198C21.7567 24.3434 20.2612 24.588 19.4709 24.4882C19.4162 24.4813 19.3615 24.4763 19.3064 24.4763H2.03794C1.97208 24.4763 1.90569 24.4701 1.8415 24.4554C0.37146 24.119 0 23.0434 0 22.5374Z" fill="#FF6414"/>
<path d="M4.31471 20L9.29518 5.85938H12.4202L17.4202 20H14.7053L13.5237 16.5039H8.20143L7.02955 20H4.31471ZM12.8401 14.4531L10.9163 8.75H10.7991L8.88502 14.4531H12.8401Z" fill="white"/>
<path d="M22.6449 22.3906H25.6156V20.9688H26.9613V22.3906H32.4203V23.5332H26.9613V24.5552C27.211 24.5256 27.4818 24.5107 27.7738 24.5107C28.7682 24.5107 29.6252 24.6462 30.3446 24.917C31.064 25.1878 31.6141 25.5793 31.995 26.0913C32.3801 26.6034 32.5726 27.2148 32.5726 27.9258C32.5726 28.5225 32.4266 29.0789 32.1346 29.5952C31.8426 30.1115 31.4343 30.5431 30.9095 30.8901C30.389 31.2329 29.7966 31.4593 29.1322 31.5693L28.6751 30.4141C29.1872 30.3252 29.6315 30.1644 30.0082 29.9316C30.389 29.6947 30.681 29.4027 30.8841 29.0557C31.0873 28.7087 31.1888 28.3278 31.1888 27.9131C31.1888 27.3164 30.9772 26.8234 30.5541 26.4341C29.9024 27.3397 29.1978 28.1564 28.4403 28.8843C27.687 29.6079 26.9528 30.175 26.2376 30.5854C25.5225 30.9959 24.8962 31.2012 24.3587 31.2012C23.9863 31.2012 23.6605 31.106 23.3812 30.9155C23.1019 30.7209 22.8861 30.4458 22.7337 30.0903C22.5814 29.7349 22.5052 29.3223 22.5052 28.8525C22.5052 28.2432 22.6322 27.6761 22.8861 27.1514C23.1442 26.6224 23.506 26.1632 23.9715 25.7739C24.4413 25.3804 24.9893 25.0757 25.6156 24.8599V23.5332H22.6449V22.3906ZM23.8382 28.8145C23.8382 29.1699 23.9038 29.4513 24.035 29.6587C24.1662 29.866 24.346 29.9697 24.5746 29.9697C24.8496 29.9697 25.2093 29.8322 25.6537 29.5571V26.1484C25.0866 26.4277 24.6423 26.8001 24.3207 27.2656C23.999 27.7269 23.8382 28.2432 23.8382 28.8145ZM26.9359 28.5986C27.3718 28.222 27.8097 27.7967 28.2499 27.3228C28.69 26.8446 29.0983 26.3516 29.475 25.8438C29.0433 25.7083 28.5482 25.6406 27.9896 25.6406C27.6341 25.6406 27.2829 25.6702 26.9359 25.7295V28.5986Z" fill="white"/>
</svg>
