<svg width="33" height="33" viewBox="0 0 33 33" fill="none" xmlns="http://www.w3.org/2000/svg">
<path d="M26.681 32.8366L20.3618 26.5175C24.8554 27.6409 26.4469 24.177 26.681 22.3047H28.7873L33.0001 26.5175H26.681V32.8366Z" fill="#FF6414"/>
<path d="M6.31915 32.8366L13.3404 25.8153C8.84681 28.0621 7.25532 24.4111 7.02128 22.3047H4.21277L0 26.5175H6.31915V32.8366Z" fill="#FF6414"/>
<path d="M4.91474 11.0707C6.59984 9.94733 6.08495 8.26222 5.61687 7.56009C5.38283 6.85755 5.33602 5.45246 7.02113 5.45246C8.70624 5.45246 9.12751 4.0482 9.12751 3.34608C9.68922 1.09927 11.2339 1.47374 11.936 1.94182C13.6211 2.50352 14.5105 1.70844 14.7445 1.24069C16.4296 -1.00632 17.7871 0.304437 18.2552 1.24069C19.3786 2.9258 20.5956 2.41107 21.0637 1.94307C23.8722 1.24094 23.8722 2.6452 23.8722 4.04946C23.8722 5.17286 24.8084 5.45371 25.2764 5.45371H26.6807C28.3658 5.45371 28.319 6.85797 28.085 7.56009C26.3999 9.2452 27.8509 10.6026 28.7871 11.0707C30.4722 12.1941 29.4892 13.4112 28.7871 13.8792C27.102 14.4409 27.1488 15.9856 27.3828 16.6878C29.0679 19.4963 27.1488 19.7303 25.9786 19.4963C25.0424 19.2622 23.3105 19.3558 23.8722 21.6026C24.4339 23.8495 22.702 23.9431 21.7658 23.709C21.0637 23.2409 19.519 22.5856 18.9573 23.709C18.2552 25.1133 16.8509 25.8154 16.1488 25.1133C15.4467 24.4112 15.4467 21.6026 13.3403 23.0069C11.2339 24.4112 9.82964 23.709 9.82964 21.6026C9.82964 19.9175 7.9573 19.4963 7.02113 19.4963C6.08496 19.4963 4.49347 19.075 5.61687 17.3899C7.02111 15.2835 5.61687 13.8792 4.91474 13.8792C4.21261 13.8792 2.80836 12.475 4.91474 11.0707Z" fill="#FFD600"/>
</svg>
