<svg width="57" height="54" viewBox="0 0 57 54" fill="none" xmlns="http://www.w3.org/2000/svg">
<rect width="57" height="54" rx="17" fill="#F4F4F4"/>
<path d="M38.681 43.8366L32.3618 37.5175C36.8554 38.6409 38.4469 35.177 38.681 33.3047H40.7873L45.0001 37.5175H38.681V43.8366Z" fill="#FF6414"/>
<path d="M18.3191 43.8366L25.3404 36.8153C20.8468 39.0621 19.2553 35.4111 19.0213 33.3047H16.2128L12 37.5175H18.3191V43.8366Z" fill="#FF6414"/>
<path d="M16.9147 22.0707C18.5998 20.9473 18.085 19.2622 17.6169 18.5601C17.3828 17.8575 17.336 16.4525 19.0211 16.4525C20.7062 16.4525 21.1275 15.0482 21.1275 14.3461C21.6892 12.0993 23.2339 12.4737 23.936 12.9418C25.6211 13.5035 26.5105 12.7084 26.7445 12.2407C28.4296 9.99368 29.7871 11.3044 30.2552 12.2407C31.3786 13.9258 32.5956 13.4111 33.0637 12.9431C35.8722 12.2409 35.8722 13.6452 35.8722 15.0495C35.8722 16.1729 36.8084 16.4537 37.2764 16.4537H38.6807C40.3658 16.4537 40.319 17.858 40.085 18.5601C38.3999 20.2452 39.8509 21.6026 40.7871 22.0707C42.4722 23.1941 41.4892 24.4112 40.7871 24.8792C39.102 25.4409 39.1488 26.9856 39.3828 27.6878C41.0679 30.4963 39.1488 30.7303 37.9786 30.4963C37.0424 30.2622 35.3105 30.3558 35.8722 32.6026C36.4339 34.8495 34.702 34.9431 33.7658 34.709C33.0637 34.2409 31.519 33.5856 30.9573 34.709C30.2552 36.1133 28.8509 36.8154 28.1488 36.1133C27.4467 35.4112 27.4467 32.6026 25.3403 34.0069C23.2339 35.4112 21.8296 34.709 21.8296 32.6026C21.8296 30.9175 19.9573 30.4963 19.0211 30.4963C18.085 30.4963 16.4935 30.075 17.6169 28.3899C19.0211 26.2835 17.6169 24.8792 16.9147 24.8792C16.2126 24.8792 14.8084 23.475 16.9147 22.0707Z" fill="#FFD600"/>
</svg>
