<svg width="31" height="36" viewBox="0 0 31 36" fill="none" xmlns="http://www.w3.org/2000/svg">
<path d="M0 28C0 21.3726 5.37258 16 12 16H19C25.6274 16 31 21.3726 31 28V31H0V28Z" fill="#5C5C5C"/>
<circle cx="14.7886" cy="6.98587" r="6.98587" fill="#5C5C5C"/>
<path d="M15.7513 19.9383L16.7478 18.419C17.049 17.9597 16.9228 17.3279 16.3974 17.1678C15.4979 16.8936 14.5537 16.9934 13.8109 17.1964C13.2439 17.3514 13.0699 18.013 13.3923 18.5046L14.3326 19.9383C14.4675 20.1439 14.5218 20.3919 14.4854 20.635L12.6186 33.0873C12.5706 33.408 12.681 33.7321 12.9148 33.9568L14.3493 35.3346C14.7363 35.7063 15.3477 35.7063 15.7347 35.3346L17.1691 33.9568C17.403 33.7321 17.5134 33.408 17.4653 33.0873L15.5986 20.635C15.5621 20.3919 15.6165 20.1439 15.7513 19.9383Z" fill="white"/>
</svg>
