<svg width="57" height="54" viewBox="0 0 57 54" fill="none" xmlns="http://www.w3.org/2000/svg">
<rect width="57" height="54" rx="17" fill="#F4F4F4"/>
<path d="M13 38C13 31.3726 18.3726 26 25 26H32C38.6274 26 44 31.3726 44 38V41H13V38Z" fill="#5C5C5C"/>
<circle cx="27.7886" cy="16.9859" r="6.98587" fill="#5C5C5C"/>
<path d="M28.7513 29.9383L29.7478 28.419C30.049 27.9597 29.9228 27.3279 29.3974 27.1678C28.4979 26.8936 27.5537 26.9934 26.8109 27.1964C26.2439 27.3514 26.0699 28.013 26.3923 28.5046L27.3326 29.9383C27.4675 30.1439 27.5218 30.3919 27.4854 30.635L25.6186 43.0873C25.5706 43.408 25.681 43.7321 25.9148 43.9568L27.3493 45.3346C27.7363 45.7063 28.3477 45.7063 28.7347 45.3346L30.1691 43.9568C30.403 43.7321 30.5134 43.408 30.4653 43.0873L28.5986 30.635C28.5621 30.3919 28.6165 30.1439 28.7513 29.9383Z" fill="white"/>
</svg>
