<svg width="10" height="36" viewBox="0 0 10 36" fill="none" xmlns="http://www.w3.org/2000/svg">
<path d="M3.76783 5.77263L1.10416 1.96739C0.77571 1.49817 0.906662 0.842608 1.43332 0.617484C3.88351 -0.429878 6.66107 0.0422373 8.43155 0.660142C9.00808 0.861355 9.1855 1.55359 8.83532 2.05385L6.23217 5.77263C6.08326 5.98536 6.02294 6.24767 6.06396 6.50408L9.91403 30.567C9.96763 30.902 9.84773 31.2413 9.59556 31.4683L5.66896 35.0022C5.28866 35.3445 4.71134 35.3445 4.33103 35.0022L0.404442 31.4683C0.15227 31.2413 0.0323657 30.902 0.0859659 30.567L3.93604 6.50408C3.97706 6.24767 3.91674 5.98536 3.76783 5.77263Z" fill="#595959"/>
</svg>
