<svg width="57" height="54" viewBox="0 0 57 54" fill="none" xmlns="http://www.w3.org/2000/svg">
<rect width="57" height="54" rx="17" fill="#F4F4F4"/>
<path d="M26.7678 16.7726L24.1042 12.9674C23.7757 12.4982 23.9067 11.8426 24.4333 11.6175C26.8835 10.5701 29.6611 11.0422 31.4315 11.6601C32.0081 11.8614 32.1855 12.5536 31.8353 13.0538L29.2322 16.7726C29.0833 16.9854 29.0229 17.2477 29.064 17.5041L32.914 41.567C32.9676 41.902 32.8477 42.2413 32.5956 42.4683L28.669 46.0022C28.2887 46.3445 27.7113 46.3445 27.331 46.0022L23.4044 42.4683C23.1523 42.2413 23.0324 41.902 23.086 41.567L26.936 17.5041C26.9771 17.2477 26.9167 16.9854 26.7678 16.7726Z" fill="#595959"/>
</svg>
