<svg width="110" height="110" viewBox="0 0 110 110" fill="none" xmlns="http://www.w3.org/2000/svg">
<circle cx="55" cy="55" r="55" fill="#D9D9D8"/>
<path d="M54.8111 24C50.9247 24 47.8262 27.2467 48.0076 31.1289L49.6756 66.8255C49.8038 69.5685 52.0651 71.7266 54.8111 71.7266C57.5572 71.7266 59.8185 69.5685 59.9466 66.8255L61.6147 31.1289C61.7961 27.2467 58.6976 24 54.8111 24Z" fill="#757271"/>
<path d="M54.8111 86C57.7673 86 60.1637 83.6036 60.1637 80.6475C60.1637 77.6914 57.7673 75.295 54.8111 75.295C51.855 75.295 49.4586 77.6914 49.4586 80.6475C49.4586 83.6036 51.855 86 54.8111 86Z" fill="#757271"/>
</svg>
