<svg width="24" height="24" viewBox="0 0 24 24" fill="none" xmlns="http://www.w3.org/2000/svg">
<path d="M0 11.7144C0 5.2447 5.24552 0 11.7152 0C18.1848 0 23.4304 5.2447 23.4304 11.7144C23.4304 18.184 18.1848 23.4287 11.7152 23.4287C5.24552 23.4287 0 18.184 0 11.7144Z" fill="#A7A5A4"/>
<path d="M18.8584 21.271C16.9243 22.6288 14.5573 23.4276 12.0007 23.4276C9.44419 23.4276 7.07715 22.6288 5.14307 21.271C5.17652 17.5705 8.23399 14.581 12.0007 14.581C15.7675 14.581 18.8249 17.5705 18.8584 21.271Z" fill="#757271"/>
<path d="M7.74412 8.76081C7.74412 6.44646 9.64989 4.57031 12.0008 4.57031C14.3517 4.57031 16.2574 6.44646 16.2574 8.76081C16.2574 11.0752 14.3517 12.9513 12.0008 12.9513C9.64989 12.9513 7.74412 11.0752 7.74412 8.76081Z" fill="#757271"/>
<path d="M23.9997 12.2847C23.9997 18.7543 18.7546 23.999 12.2845 23.999C5.8144 23.999 0.569336 18.7543 0.569336 12.2847C0.569336 5.81501 5.8144 0.570312 12.2845 0.570312C18.7546 0.570312 23.9997 5.81501 23.9997 12.2847ZM3.1291 12.2847C3.1291 17.3407 7.22812 21.4394 12.2845 21.4394C17.3409 21.4394 21.4399 17.3407 21.4399 12.2847C21.4399 7.22863 17.3409 3.1299 12.2845 3.1299C7.22812 3.1299 3.1291 7.22863 3.1291 12.2847Z" fill="#A7A5A4"/>
</svg>
