<svg width="24" height="25" viewBox="0 0 24 25" fill="none" xmlns="http://www.w3.org/2000/svg">
<g clip-path="url(#clip0_397_5138)">
<path d="M2.59707 3.29639H2.13728C1.19528 3.29639 0.431641 4.06125 0.431641 5.00475V22.7918C0.431641 23.7353 1.19528 24.5001 2.13728 24.5001H21.8023C22.7443 24.5001 23.5079 23.7353 23.5079 22.7918V5.00475C23.5079 4.06125 22.7443 3.29639 21.8023 3.29639H21.3076V4.01309C21.3076 5.86982 19.7824 7.37501 17.901 7.37501C16.0197 7.37501 14.4945 5.86982 14.4945 4.01309V3.29639H9.41014V4.01309C9.41014 5.86982 7.88498 7.37501 6.0036 7.37501C4.12223 7.37501 2.59707 5.86982 2.59707 4.01309V3.29639Z" fill="#757271"/>
<path d="M4.45315 2.0163C4.45315 1.17887 5.15501 0.5 6.02079 0.5C6.88657 0.5 7.58843 1.17887 7.58843 2.0163V3.97282C7.58843 4.81025 6.88657 5.48912 6.02079 5.48912C5.15501 5.48912 4.45315 4.81025 4.45315 3.97282V2.0163Z" fill="#757271"/>
<path d="M16.2863 2.0163C16.2863 1.17887 16.9881 0.5 17.8539 0.5C18.7197 0.5 19.4216 1.17887 19.4216 2.0163V3.97282C19.4216 4.81025 18.7197 5.48912 17.8539 5.48912C16.9881 5.48912 16.2863 4.81025 16.2863 3.97282V2.0163Z" fill="#757271"/>
<path d="M9.63472 11.5584C9.63472 11.3021 9.84247 11.0944 10.0987 11.0944H13.8109C14.0672 11.0944 14.2749 11.3021 14.2749 11.5584V15.2703C14.2749 15.5265 14.0672 15.7343 13.8109 15.7343H10.0987C9.84247 15.7343 9.63472 15.5265 9.63472 15.2703V11.5584Z" fill="#A7A5A4"/>
<path d="M9.63472 17.3582C9.63472 17.102 9.84247 16.8942 10.0987 16.8942H13.8109C14.0672 16.8942 14.2749 17.102 14.2749 17.3582V21.0701C14.2749 21.3264 14.0672 21.5341 13.8109 21.5341H10.0987C9.84247 21.5341 9.63472 21.3264 9.63472 21.0701V17.3582Z" fill="#A7A5A4"/>
<path d="M3.67979 11.5584C3.67979 11.3021 3.88753 11.0944 4.14381 11.0944H7.85597C8.11224 11.0944 8.31999 11.3021 8.31999 11.5584V15.2703C8.31999 15.5265 8.11224 15.7343 7.85597 15.7343H4.14381C3.88753 15.7343 3.67979 15.5265 3.67979 15.2703V11.5584Z" fill="#A7A5A4"/>
<path d="M3.67979 17.3582C3.67979 17.102 3.88753 16.8942 4.14381 16.8942H7.85597C8.11224 16.8942 8.31999 17.102 8.31999 17.3582V21.0701C8.31999 21.3264 8.11224 21.5341 7.85597 21.5341H4.14381C3.88753 21.5341 3.67979 21.3264 3.67979 21.0701V17.3582Z" fill="#A7A5A4"/>
<path d="M15.5896 11.5584C15.5896 11.3021 15.7974 11.0944 16.0537 11.0944H19.7658C20.0221 11.0944 20.2299 11.3021 20.2299 11.5584V15.2703C20.2299 15.5265 20.0221 15.7343 19.7658 15.7343H16.0537C15.7974 15.7343 15.5896 15.5265 15.5896 15.2703V11.5584Z" fill="#A7A5A4"/>
<path d="M15.5896 17.3582C15.5896 17.102 15.7974 16.8942 16.0537 16.8942H19.7658C20.0221 16.8942 20.2299 17.102 20.2299 17.3582V21.0701C20.2299 21.3264 20.0221 21.5341 19.7658 21.5341H16.0537C15.7974 21.5341 15.5896 21.3264 15.5896 21.0701V17.3582Z" fill="#A7A5A4"/>
</g>
<defs>
<clipPath id="clip0_397_5138">
<rect width="24" height="24.0001" fill="white" transform="translate(0 0.5)"/>
</clipPath>
</defs>
</svg>
