<svg width="24" height="24" viewBox="0 0 24 24" fill="none" xmlns="http://www.w3.org/2000/svg">
<mask id="mask0_655_6031" style="mask-type:alpha" maskUnits="userSpaceOnUse" x="0" y="0" width="24" height="24">
<rect y="24" width="24" height="24" transform="rotate(-90 0 24)" fill="#D9D9D9"/>
</mask>
<g mask="url(#mask0_655_6031)">
<path d="M17.6464 9.64645C17.8417 9.84171 17.8417 10.1583 17.6464 10.3536L12.3536 15.6464C12.1583 15.8417 11.8417 15.8417 11.6464 15.6464L6.35355 10.3536C6.15829 10.1583 6.15829 9.84171 6.35355 9.64645L6.64645 9.35355C6.84171 9.15829 7.15829 9.15829 7.35355 9.35355L11.6464 13.6464C11.8417 13.8417 12.1583 13.8417 12.3536 13.6464L16.6464 9.35355C16.8417 9.15829 17.1583 9.15829 17.3536 9.35355L17.6464 9.64645Z" fill="#FF6414"/>
</g>
</svg>
